<?xml version="1.0" encoding="UTF-8"?>
<svg version="1.1" xmlns="http://www.w3.org/2000/svg" width="41" height="40">
<path d="M0 0 C1.95123914 1.95123914 1.46083048 5.51866933 1.625 8.1875 C1.66931152 8.89914307 1.71362305 9.61078613 1.75927734 10.34399414 C2.12277974 17.26357667 1.93079193 24.12248185 1 31 C0.505 31.495 0.505 31.495 0 32 C-2.76788175 31.98791318 -5.48891507 31.90378053 -8.25 31.75 C-9.05816162 31.70552734 -9.86632324 31.66105469 -10.69897461 31.61523438 C-28.55730931 30.44269069 -28.55730931 30.44269069 -32 27 C-33.10274707 19.56258367 -33.06798154 12.42657934 -32 5 C-27.07946696 2.6073518 -21.92131999 2.10086643 -16.5625 1.375 C-15.1693457 1.17390625 -15.1693457 1.17390625 -13.74804688 0.96875 C-9.15010752 0.32732928 -4.65379951 -0.28755184 0 0 Z " fill="#03192C" transform="translate(36,4)"/>
<path d="M0 0 C5.61 0 11.22 0 17 0 C17 4.95 17 9.9 17 15 C3.375 14.125 3.375 14.125 0 13 C0 8.71 0 4.42 0 0 Z " fill="#259BE2" transform="translate(19,21)"/>
<path d="M0 0 C0 4.95 0 9.9 0 15 C-5.61 15 -11.22 15 -17 15 C-17 10.71 -17 6.42 -17 2 C-11.07168496 0.8432556 -6.07056458 0 0 0 Z " fill="#4ACEF5" transform="translate(36,4)"/>
<path d="M0 0 C3.96 0 7.92 0 12 0 C12 3.96 12 7.92 12 12 C10.576875 12.020625 9.15375 12.04125 7.6875 12.0625 C6.48673828 12.07990234 6.48673828 12.07990234 5.26171875 12.09765625 C3 12 3 12 0 11 C0 7.37 0 3.74 0 0 Z " fill="#0F77D4" transform="translate(5,21)"/>
<path d="M0 0 C0 4.29 0 8.58 0 13 C-3.96 13 -7.92 13 -12 13 C-12 9.37 -12 5.74 -12 2 C-10.18769567 1.66560447 -8.3751509 1.33251176 -6.5625 1 C-5.04849609 0.7215625 -5.04849609 0.7215625 -3.50390625 0.4375 C-1 0 -1 0 0 0 Z " fill="#299DE1" transform="translate(17,6)"/>
<path d="M0 0 C0.33 0 0.66 0 1 0 C1.85803148 10.16437295 2.03351814 19.82382142 1 30 C0.67 30 0.34 30 0 30 C0 25.38 0 20.76 0 16 C-5.61 16 -11.22 16 -17 16 C-17 15.34 -17 14.68 -17 14 C-11.39 14 -5.78 14 0 14 C0 9.38 0 4.76 0 0 Z " fill="#12415A" transform="translate(36,5)"/>
<path d="M0 0 C0.33 0 0.66 0 1 0 C1 3.3 1 6.6 1 10 C4.96 10 8.92 10 13 10 C13 10.66 13 11.32 13 12 C9.04 12 5.08 12 1 12 C1 15.3 1 18.6 1 22 C0.67 22 0.34 22 0 22 C-0.8388516 14.48905184 -1.0773541 7.49175465 0 0 Z " fill="#062439" transform="translate(4,9)"/>
<path d="M0 0 C2.64 0 5.28 0 8 0 C8 0.33 8 0.66 8 1 C6.02 1.66 4.04 2.32 2 3 C1.67 5.31 1.34 7.62 1 10 C4.3 10 7.6 10 11 10 C11 6.7 11 3.4 11 0 C11.33 0 11.66 0 12 0 C12 3.63 12 7.26 12 11 C8.04 11 4.08 11 0 11 C0 7.37 0 3.74 0 0 Z " fill="#2AB3FC" transform="translate(5,8)"/>
<path d="M0 0 C2.64 0 5.28 0 8 0 C8 0.33 8 0.66 8 1 C6.02 1.66 4.04 2.32 2 3 C1.67 5.64 1.34 8.28 1 11 C0.67 11 0.34 11 0 11 C0 7.37 0 3.74 0 0 Z " fill="#34BBF4" transform="translate(5,8)"/>
<path d="" fill="#000000" transform="translate(0,0)"/>
<path d="" fill="#000000" transform="translate(0,0)"/>
<path d="" fill="#000000" transform="translate(0,0)"/>
<path d="" fill="#000000" transform="translate(0,0)"/>
<path d="" fill="#000000" transform="translate(0,0)"/>
<path d="" fill="#000000" transform="translate(0,0)"/>
<path d="" fill="#000000" transform="translate(0,0)"/>
<path d="" fill="#000000" transform="translate(0,0)"/>
</svg>
